<svg width="168" height="167" viewBox="0 0 168 167" fill="none" xmlns="http://www.w3.org/2000/svg">
<rect x="2.5" y="30.2957" width="133.978" height="133.978" stroke="#30236C" stroke-width="5"/>
<rect x="16.7451" y="16.3975" width="134.326" height="133.978" stroke="#30236C" stroke-width="5"/>
<rect x="30.6429" y="2.5" width="133.978" height="133.978" stroke="#30236C" stroke-width="5"/>
<path d="M57.8679 62.5262H63.0923L67.5241 73.333H67.7287L72.1605 62.5262H77.3849V79.9807H73.277V69.2591H73.1321L68.9389 79.8699H66.3139L62.1207 69.1995H61.9759V79.9807H57.8679V62.5262ZM95.8601 68.85H91.5987C91.5419 68.4125 91.4254 68.0176 91.2493 67.6654C91.0732 67.3131 90.8402 67.012 90.5504 66.762C90.2607 66.512 89.9169 66.3216 89.5192 66.1909C89.1271 66.0546 88.6925 65.9864 88.2152 65.9864C87.3686 65.9864 86.6385 66.1938 86.0249 66.6086C85.4169 67.0233 84.9482 67.6228 84.6186 68.4068C84.2947 69.1909 84.1328 70.1398 84.1328 71.2534C84.1328 72.4125 84.2976 73.3841 84.6271 74.1682C84.9624 74.9466 85.4311 75.5347 86.0334 75.9324C86.6413 76.3245 87.3601 76.5205 88.1896 76.5205C88.6555 76.5205 89.0788 76.4608 89.4595 76.3415C89.8459 76.2222 90.1839 76.0489 90.4737 75.8216C90.7692 75.5887 91.0107 75.3074 91.1982 74.9779C91.3913 74.6426 91.5249 74.2648 91.5987 73.8443L95.8601 73.8699C95.7862 74.6426 95.5618 75.404 95.1868 76.154C94.8175 76.904 94.3089 77.5887 93.6612 78.208C93.0135 78.8216 92.2237 79.3103 91.2919 79.6739C90.3658 80.0375 89.3033 80.2193 88.1044 80.2193C86.5249 80.2193 85.1101 79.8728 83.8601 79.1796C82.6158 78.4807 81.6328 77.4637 80.9112 76.1284C80.1896 74.7932 79.8288 73.1682 79.8288 71.2534C79.8288 69.333 80.1953 67.7051 80.9283 66.3699C81.6612 65.0347 82.6527 64.0205 83.9027 63.3273C85.1527 62.6341 86.5533 62.2875 88.1044 62.2875C89.1612 62.2875 90.1385 62.4353 91.0362 62.7307C91.9339 63.0205 92.7237 63.4466 93.4055 64.0091C94.0874 64.5659 94.6413 65.2506 95.0675 66.0631C95.4936 66.8756 95.7578 67.8046 95.8601 68.85Z" fill="#30236C"/>
<path d="M40.3366 95.1741H42.0184L45.9729 104.833H46.1093L50.0639 95.1741H51.7457V106.81H50.4275V97.9695H50.3139L46.6775 106.81H45.4048L41.7684 97.9695H41.6548V106.81H40.3366V95.1741ZM58.0482 106.992C57.2073 106.992 56.4819 106.807 55.8721 106.435C55.266 106.06 54.7982 105.538 54.4687 104.867C54.1429 104.193 53.98 103.409 53.98 102.515C53.98 101.621 54.1429 100.833 54.4687 100.151C54.7982 99.4657 55.2566 98.9316 55.8437 98.5491C56.4346 98.1627 57.124 97.9695 57.9119 97.9695C58.3664 97.9695 58.8153 98.0453 59.2585 98.1968C59.7016 98.3483 60.105 98.5945 60.4687 98.9354C60.8323 99.2725 61.1221 99.7195 61.338 100.276C61.5539 100.833 61.6619 101.519 61.6619 102.333V102.901H54.9346V101.742H60.2982C60.2982 101.25 60.1997 100.81 60.0028 100.424C59.8096 100.038 59.5331 99.7328 59.1732 99.5093C58.8172 99.2858 58.3967 99.1741 57.9119 99.1741C57.3778 99.1741 56.9157 99.3066 56.5255 99.5718C56.1391 99.8332 55.8418 100.174 55.6335 100.595C55.4251 101.015 55.321 101.466 55.321 101.947V102.72C55.321 103.379 55.4346 103.937 55.6619 104.396C55.8929 104.85 56.213 105.197 56.6221 105.435C57.0312 105.67 57.5066 105.788 58.0482 105.788C58.4005 105.788 58.7187 105.738 59.0028 105.64C59.2907 105.538 59.5388 105.386 59.7471 105.185C59.9554 104.981 60.1164 104.727 60.23 104.424L61.5255 104.788C61.3891 105.227 61.16 105.613 60.838 105.947C60.516 106.276 60.1183 106.534 59.6448 106.72C59.1713 106.901 58.6391 106.992 58.0482 106.992ZM65.0425 101.56V106.81H63.7016V98.0832H64.9971V99.4468H65.1107C65.3153 99.0036 65.6259 98.6475 66.0425 98.3786C66.4592 98.1059 66.9971 97.9695 67.6562 97.9695C68.2471 97.9695 68.7641 98.0907 69.2073 98.3332C69.6505 98.5718 69.9952 98.9354 70.2414 99.4241C70.4876 99.9089 70.6107 100.523 70.6107 101.265V106.81H69.2698V101.356C69.2698 100.67 69.0918 100.136 68.7357 99.7536C68.3797 99.3672 67.891 99.1741 67.2698 99.1741C66.8418 99.1741 66.4592 99.2669 66.1221 99.4525C65.7888 99.6381 65.5255 99.9089 65.3323 100.265C65.1391 100.621 65.0425 101.053 65.0425 101.56ZM76.3565 106.992C75.6292 106.992 74.9871 106.809 74.4303 106.441C73.8735 106.07 73.4379 105.547 73.1235 104.873C72.8091 104.195 72.6519 103.394 72.6519 102.47C72.6519 101.553 72.8091 100.757 73.1235 100.083C73.4379 99.4089 73.8754 98.8881 74.436 98.5207C74.9966 98.1532 75.6443 97.9695 76.3792 97.9695C76.9474 97.9695 77.3962 98.0642 77.7258 98.2536C78.0591 98.4392 78.3129 98.6513 78.4871 98.89C78.6652 99.1248 78.8034 99.318 78.9019 99.4695H79.0156V95.1741H80.3565V106.81H79.061V105.47H78.9019C78.8034 105.629 78.6633 105.829 78.4815 106.072C78.2996 106.31 78.0402 106.524 77.7031 106.714C77.3659 106.899 76.9171 106.992 76.3565 106.992ZM76.5383 105.788C77.0762 105.788 77.5307 105.648 77.9019 105.367C78.2731 105.083 78.5553 104.691 78.7485 104.191C78.9417 103.687 79.0383 103.106 79.0383 102.447C79.0383 101.795 78.9436 101.225 78.7542 100.737C78.5648 100.244 78.2845 99.8616 77.9133 99.5888C77.5421 99.3123 77.0837 99.1741 76.5383 99.1741C75.9701 99.1741 75.4966 99.3199 75.1178 99.6116C74.7428 99.8994 74.4606 100.291 74.2712 100.788C74.0856 101.28 73.9928 101.833 73.9928 102.447C73.9928 103.068 74.0875 103.632 74.2769 104.14C74.4701 104.644 74.7542 105.045 75.1292 105.345C75.508 105.64 75.9777 105.788 76.5383 105.788ZM86.6576 106.992C85.8167 106.992 85.0913 106.807 84.4815 106.435C83.8754 106.06 83.4076 105.538 83.0781 104.867C82.7523 104.193 82.5894 103.409 82.5894 102.515C82.5894 101.621 82.7523 100.833 83.0781 100.151C83.4076 99.4657 83.8659 98.9316 84.4531 98.5491C85.044 98.1627 85.7334 97.9695 86.5212 97.9695C86.9758 97.9695 87.4246 98.0453 87.8678 98.1968C88.311 98.3483 88.7144 98.5945 89.0781 98.9354C89.4417 99.2725 89.7315 99.7195 89.9474 100.276C90.1633 100.833 90.2712 101.519 90.2712 102.333V102.901H83.544V101.742H88.9076C88.9076 101.25 88.8091 100.81 88.6121 100.424C88.419 100.038 88.1425 99.7328 87.7826 99.5093C87.4265 99.2858 87.0061 99.1741 86.5212 99.1741C85.9871 99.1741 85.525 99.3066 85.1349 99.5718C84.7485 99.8332 84.4512 100.174 84.2428 100.595C84.0345 101.015 83.9303 101.466 83.9303 101.947V102.72C83.9303 103.379 84.044 103.937 84.2712 104.396C84.5023 104.85 84.8224 105.197 85.2315 105.435C85.6406 105.67 86.1159 105.788 86.6576 105.788C87.0099 105.788 87.3281 105.738 87.6121 105.64C87.9 105.538 88.1481 105.386 88.3565 105.185C88.5648 104.981 88.7258 104.727 88.8394 104.424L90.1349 104.788C89.9985 105.227 89.7693 105.613 89.4474 105.947C89.1254 106.276 88.7277 106.534 88.2542 106.72C87.7807 106.901 87.2485 106.992 86.6576 106.992ZM98.4928 100.038L97.2883 100.379C97.2125 100.178 97.1008 99.9828 96.9531 99.7934C96.8091 99.6002 96.6121 99.4411 96.3621 99.3161C96.1121 99.1911 95.7921 99.1286 95.4019 99.1286C94.8678 99.1286 94.4228 99.2517 94.0667 99.4979C93.7144 99.7403 93.5383 100.049 93.5383 100.424C93.5383 100.757 93.6595 101.021 93.9019 101.214C94.1443 101.407 94.5231 101.568 95.0383 101.697L96.3337 102.015C97.114 102.204 97.6955 102.494 98.0781 102.884C98.4606 103.271 98.6519 103.769 98.6519 104.379C98.6519 104.879 98.508 105.326 98.2201 105.72C97.936 106.113 97.5383 106.424 97.0269 106.651C96.5156 106.879 95.9209 106.992 95.2428 106.992C94.3527 106.992 93.6159 106.799 93.0326 106.413C92.4493 106.026 92.08 105.462 91.9246 104.72L93.1974 104.401C93.3186 104.871 93.5478 105.223 93.8849 105.458C94.2258 105.693 94.6709 105.81 95.2201 105.81C95.8451 105.81 96.3413 105.678 96.7087 105.413C97.08 105.144 97.2656 104.822 97.2656 104.447C97.2656 104.144 97.1595 103.89 96.9474 103.685C96.7353 103.477 96.4095 103.322 95.9701 103.22L94.5156 102.879C93.7163 102.689 93.1292 102.396 92.7542 101.998C92.383 101.596 92.1974 101.095 92.1974 100.492C92.1974 99.9998 92.3356 99.5642 92.6121 99.1854C92.8925 98.8066 93.2731 98.5093 93.7542 98.2934C94.239 98.0775 94.7883 97.9695 95.4019 97.9695C96.2656 97.9695 96.9436 98.1589 97.436 98.5377C97.9322 98.9165 98.2845 99.4165 98.4928 100.038ZM110.216 98.8104H108.807C108.723 98.4051 108.578 98.0491 108.369 97.7422C108.165 97.4354 107.915 97.1778 107.619 96.9695C107.328 96.7574 107.004 96.5983 106.648 96.4922C106.292 96.3862 105.92 96.3332 105.534 96.3332C104.829 96.3332 104.191 96.5112 103.619 96.8672C103.051 97.2233 102.598 97.7479 102.261 98.4411C101.928 99.1343 101.761 99.9847 101.761 100.992C101.761 102 101.928 102.85 102.261 103.543C102.598 104.237 103.051 104.761 103.619 105.117C104.191 105.473 104.829 105.651 105.534 105.651C105.92 105.651 106.292 105.598 106.648 105.492C107.004 105.386 107.328 105.229 107.619 105.021C107.915 104.809 108.165 104.549 108.369 104.242C108.578 103.932 108.723 103.576 108.807 103.174H110.216C110.11 103.769 109.917 104.301 109.636 104.771C109.356 105.24 109.008 105.64 108.591 105.97C108.174 106.295 107.706 106.543 107.187 106.714C106.672 106.884 106.121 106.97 105.534 106.97C104.542 106.97 103.659 106.727 102.886 106.242C102.114 105.757 101.506 105.068 101.062 104.174C100.619 103.28 100.398 102.22 100.398 100.992C100.398 99.765 100.619 98.7044 101.062 97.8104C101.506 96.9165 102.114 96.2271 102.886 95.7422C103.659 95.2574 104.542 95.015 105.534 95.015C106.121 95.015 106.672 95.1002 107.187 95.2707C107.706 95.4411 108.174 95.6911 108.591 96.0207C109.008 96.3464 109.356 96.7441 109.636 97.2138C109.917 97.6797 110.11 98.2119 110.216 98.8104ZM114.879 107.015C114.326 107.015 113.824 106.911 113.374 106.702C112.923 106.49 112.565 106.185 112.3 105.788C112.034 105.386 111.902 104.901 111.902 104.333C111.902 103.833 112 103.428 112.197 103.117C112.394 102.803 112.658 102.557 112.987 102.379C113.317 102.201 113.68 102.068 114.078 101.981C114.48 101.89 114.883 101.818 115.288 101.765C115.819 101.697 116.249 101.646 116.578 101.612C116.911 101.574 117.154 101.511 117.305 101.424C117.461 101.337 117.538 101.185 117.538 100.97V100.924C117.538 100.363 117.385 99.9278 117.078 99.6172C116.775 99.3066 116.315 99.1513 115.697 99.1513C115.057 99.1513 114.555 99.2915 114.192 99.5718C113.828 99.8521 113.572 100.151 113.425 100.47L112.152 100.015C112.379 99.4847 112.682 99.0718 113.061 98.7763C113.444 98.4771 113.86 98.2688 114.311 98.1513C114.766 98.0301 115.213 97.9695 115.652 97.9695C115.932 97.9695 116.254 98.0036 116.618 98.0718C116.985 98.1362 117.339 98.2707 117.68 98.4752C118.025 98.6797 118.311 98.9885 118.538 99.4013C118.766 99.8142 118.879 100.367 118.879 101.06V106.81H117.538V105.629H117.47C117.379 105.818 117.228 106.021 117.016 106.237C116.803 106.452 116.521 106.636 116.169 106.788C115.817 106.939 115.387 107.015 114.879 107.015ZM115.084 105.81C115.614 105.81 116.061 105.706 116.425 105.498C116.792 105.29 117.069 105.021 117.254 104.691C117.444 104.362 117.538 104.015 117.538 103.651V102.424C117.481 102.492 117.356 102.555 117.163 102.612C116.974 102.665 116.754 102.712 116.504 102.754C116.258 102.791 116.017 102.826 115.783 102.856C115.552 102.882 115.364 102.905 115.22 102.924C114.872 102.97 114.546 103.043 114.243 103.146C113.944 103.244 113.701 103.394 113.516 103.595C113.334 103.791 113.243 104.06 113.243 104.401C113.243 104.867 113.415 105.22 113.76 105.458C114.108 105.693 114.55 105.81 115.084 105.81ZM121.327 106.81V98.0832H122.622V99.4013H122.713C122.872 98.9695 123.16 98.6191 123.577 98.3502C123.993 98.0813 124.463 97.9468 124.986 97.9468C125.084 97.9468 125.207 97.9487 125.355 97.9525C125.503 97.9563 125.615 97.9619 125.69 97.9695V99.3332C125.645 99.3218 125.541 99.3047 125.378 99.282C125.219 99.2555 125.05 99.2422 124.872 99.2422C124.448 99.2422 124.069 99.3313 123.736 99.5093C123.406 99.6835 123.145 99.926 122.952 100.237C122.762 100.543 122.668 100.894 122.668 101.288V106.81H121.327Z" fill="#30236C"/>
</svg>
